# xmcd CD database file
#
# Track frame offsets:
#	150
#	15809
#	36967
#	50233
#	63989
#	77778
#	88634
#	100487
#	114973
#	140481
#	154546
#	168097
#	181378
#	195035
#	228233
#	239711
#	254817
#	272388
#	285231
#
# Disc length: 4000 seconds
#
# Revision: 0
# Processed by: cddbd v1.5PL3 Copyright (c) Steve Scherf et al.
# Submitted via: CDex 1.50beta10
#
DISCID=f30f9e13
DTITLE=Essentiel Jazz 1 - Essentiel Jazz 1
DYEAR=2004
DGENRE=Jazz
TTITLE0=IN THE MOOD
TTITLE1=JUST A GIGOLO
TTITLE2=TAKE FIVE
TTITLE3=C'EST SI BON
TTITLE4=MOANIN'
TTITLE5=TEA FOR TWO
TTITLE6=NIGHT IN TUNISIA
TTITLE7=WATERMELON MAN
TTITLE8=YEH YEH
TTITLE9=JUMPIN' AT THE WOODSIDE
TTITLE10=HI DE HO MAN
TTITLE11=ONE O'CLOCK JUMP
TTITLE12=SMOOTH SAILING
TTITLE13=BETTER GET IT IN YOUR SOUL
TTITLE14=WORK SONG
TTITLE15=HOW HIGH THE MOON
TTITLE16=WHEN THE SAINTS GO MARCHING IN
TTITLE17=THREE TO GET READY
TTITLE18=MACK THE KNIFE
EXTD=YEAR: 2004
EXTT0=
EXTT1=
EXTT2=
EXTT3=
EXTT4=
EXTT5=
EXTT6=
EXTT7=
EXTT8=
EXTT9=
EXTT10=
EXTT11=
EXTT12=
EXTT13=
EXTT14=
EXTT15=
EXTT16=
EXTT17=
EXTT18=
PLAYORDER=
